<svg id="Layer_1" data-name="Layer 1" xmlns="http://www.w3.org/2000/svg" xmlns:xlink="http://www.w3.org/1999/xlink" viewBox="0 0 395.57 70.5"><defs><style>.cls-1{fill:url(#linear-gradient);}.cls-2{fill:url(#radial-gradient);}.cls-3{fill:#be1e2d;}.cls-4{fill:url(#radial-gradient-2);}.cls-5{fill:url(#radial-gradient-3);}.cls-6{fill:url(#radial-gradient-4);}.cls-7{fill:url(#radial-gradient-5);}.cls-8{fill:url(#radial-gradient-6);}.cls-9{fill:url(#radial-gradient-7);}.cls-10{fill:url(#radial-gradient-8);}.cls-11{fill:url(#radial-gradient-9);}.cls-12{fill:url(#radial-gradient-10);}.cls-13{fill:url(#radial-gradient-11);}.cls-14{fill:url(#radial-gradient-12);}.cls-15{fill:url(#radial-gradient-13);}.cls-16{fill:url(#radial-gradient-14);}.cls-17{fill:url(#radial-gradient-15);}.cls-18{fill:url(#radial-gradient-16);}.cls-19{fill:url(#radial-gradient-17);}.cls-20{fill:url(#radial-gradient-18);}.cls-21{fill:url(#radial-gradient-19);}.cls-22{fill:url(#radial-gradient-20);}.cls-23{fill:url(#radial-gradient-21);}.cls-24{fill:url(#radial-gradient-22);}.cls-25{fill:url(#radial-gradient-23);}.cls-26{fill:url(#radial-gradient-24);}.cls-27{fill:url(#radial-gradient-25);}.cls-28{fill:url(#radial-gradient-26);}.cls-29{fill:url(#radial-gradient-27);}.cls-30{fill:url(#radial-gradient-28);}.cls-31{fill:url(#radial-gradient-29);}.cls-32{fill:url(#radial-gradient-30);}.cls-33{fill:url(#radial-gradient-31);}.cls-34{fill:url(#radial-gradient-32);}.cls-35{fill:url(#radial-gradient-33);}.cls-36{fill:url(#radial-gradient-34);}.cls-37{fill:url(#radial-gradient-35);}.cls-38{fill:url(#radial-gradient-36);}.cls-39{fill:url(#radial-gradient-37);}.cls-40{fill:url(#radial-gradient-38);}.cls-41{fill:url(#radial-gradient-39);}.cls-42{fill:url(#radial-gradient-41);}.cls-43{fill:url(#radial-gradient-42);}.cls-44{fill:url(#radial-gradient-43);}.cls-45{fill:url(#radial-gradient-44);}.cls-46{fill:url(#radial-gradient-45);}.cls-47{fill:url(#radial-gradient-46);}.cls-48{fill:url(#radial-gradient-47);}.cls-49{fill:url(#radial-gradient-48);}.cls-50{fill:url(#radial-gradient-49);}.cls-51{fill:url(#radial-gradient-50);}.cls-52{fill:url(#radial-gradient-51);}.cls-53{fill:url(#radial-gradient-52);}.cls-54{fill:url(#radial-gradient-53);}.cls-55{fill:url(#radial-gradient-54);}.cls-56{fill:url(#radial-gradient-55);}.cls-57{fill:url(#radial-gradient-56);}.cls-58{fill:url(#radial-gradient-57);}.cls-59{fill:url(#radial-gradient-58);}.cls-60{fill:url(#radial-gradient-59);}.cls-61{fill:url(#radial-gradient-60);}.cls-62{fill:url(#radial-gradient-61);}.cls-63{fill:url(#radial-gradient-62);}.cls-64{fill:url(#radial-gradient-63);}.cls-65{fill:url(#radial-gradient-64);}.cls-66{fill:url(#radial-gradient-65);}.cls-67{fill:url(#radial-gradient-66);}.cls-68{fill:url(#radial-gradient-68);}.cls-69{fill:url(#radial-gradient-69);}.cls-70{fill:url(#radial-gradient-70);}.cls-71{fill:url(#radial-gradient-71);}.cls-72{fill:url(#radial-gradient-72);}.cls-73{fill:url(#linear-gradient-2);}.cls-74{fill:url(#linear-gradient-3);}.cls-75{fill:url(#linear-gradient-4);}.cls-76{fill:url(#linear-gradient-5);}.cls-77{fill:url(#linear-gradient-6);}.cls-78{fill:url(#linear-gradient-7);}.cls-79{fill:url(#linear-gradient-8);}.cls-80{fill:url(#linear-gradient-9);}.cls-81{fill:url(#linear-gradient-10);}.cls-82{fill:url(#linear-gradient-11);}.cls-83{fill:url(#linear-gradient-12);}.cls-84{fill:url(#linear-gradient-13);}.cls-85{fill:url(#linear-gradient-14);}.cls-86{fill:url(#linear-gradient-15);}.cls-87{fill:url(#linear-gradient-16);}.cls-88{fill:url(#linear-gradient-17);}.cls-89{fill:url(#linear-gradient-18);}.cls-90{fill:url(#linear-gradient-19);}.cls-91{fill:url(#radial-gradient-73);}.cls-92{isolation:isolate;}.cls-93{fill:#ea3033;}.cls-94{fill:#d17c0b;}</style><linearGradient id="linear-gradient" x1="38.9" y1="1.5" x2="33.87" y2="69.09" gradientTransform="translate(62.38 -8.22) rotate(76.72)" gradientUnits="userSpaceOnUse"><stop offset="0" stop-color="#f4cd49"/><stop offset="0.31" stop-color="#f9c122"/><stop offset="0.69" stop-color="#f6c911"/><stop offset="1" stop-color="#f39d20"/></linearGradient><radialGradient id="radial-gradient" cx="56.93" cy="59.44" r="57.72" gradientTransform="translate(16.28 -11.24) rotate(22.5)" gradientUnits="userSpaceOnUse"><stop offset="0" stop-color="#ed302a"/><stop offset="0.41" stop-color="#ec1c24"/><stop offset="1" stop-color="#be151b"/></radialGradient><radialGradient id="radial-gradient-2" cx="18.47" cy="37.87" r="2.2" gradientUnits="userSpaceOnUse"><stop offset="0.14" stop-color="#fdcd07"/><stop offset="1" stop-color="#f4ce35"/></radialGradient><radialGradient id="radial-gradient-3" cx="21.55" cy="37.87" r="2.25" xlink:href="#radial-gradient-2"/><radialGradient id="radial-gradient-4" cx="24.96" cy="37.92" r="2.28" xlink:href="#radial-gradient-2"/><radialGradient id="radial-gradient-5" cx="28.47" cy="36.88" r="2.92" xlink:href="#radial-gradient-2"/><radialGradient id="radial-gradient-6" cx="33.22" cy="37.87" r="2.3" xlink:href="#radial-gradient-2"/><radialGradient id="radial-gradient-7" cx="36.79" cy="37.87" r="2.25" xlink:href="#radial-gradient-2"/><radialGradient id="radial-gradient-8" cx="40.2" cy="37.21" r="2.73" xlink:href="#radial-gradient-2"/><radialGradient id="radial-gradient-9" cx="45.37" cy="37.87" r="2.3" xlink:href="#radial-gradient-2"/><radialGradient id="radial-gradient-10" cx="49.27" cy="37.6" r="2.58" xlink:href="#radial-gradient-2"/><radialGradient id="radial-gradient-11" cx="52.47" cy="37.26" r="2.74" xlink:href="#radial-gradient-2"/><radialGradient id="radial-gradient-12" cx="55.77" cy="37.87" r="2.31" xlink:href="#radial-gradient-2"/><radialGradient id="radial-gradient-13" cx="36.89" cy="19.43" r="11.24" gradientUnits="userSpaceOnUse"><stop offset="0" stop-color="#f6ea89"/><stop offset="0.31" stop-color="#f9c122"/><stop offset="0.69" stop-color="#f6c911"/><stop offset="1" stop-color="#f6b11b"/></radialGradient><radialGradient id="radial-gradient-14" cx="36.17" cy="64.51" r="14.16" xlink:href="#radial-gradient-13"/><radialGradient id="radial-gradient-15" cx="43.52" cy="73.35" r="25.07" gradientUnits="userSpaceOnUse"><stop offset="0" stop-color="#f7f2bb"/><stop offset="0.72" stop-color="#fdcd07"/><stop offset="1" stop-color="#f4ce35"/></radialGradient><radialGradient id="radial-gradient-16" cx="43.52" cy="73.35" r="25.07" xlink:href="#radial-gradient-15"/><radialGradient id="radial-gradient-17" cx="43.52" cy="73.35" r="25.07" xlink:href="#radial-gradient-15"/><radialGradient id="radial-gradient-18" cx="43.52" cy="73.35" r="25.07" xlink:href="#radial-gradient-15"/><radialGradient id="radial-gradient-19" cx="43.52" cy="73.35" r="25.07" xlink:href="#radial-gradient-15"/><radialGradient id="radial-gradient-20" cx="43.52" cy="73.35" r="25.07" xlink:href="#radial-gradient-15"/><radialGradient id="radial-gradient-21" cx="43.52" cy="73.35" r="25.07" xlink:href="#radial-gradient-15"/><radialGradient id="radial-gradient-22" cx="43.52" cy="73.35" r="25.07" xlink:href="#radial-gradient-15"/><radialGradient id="radial-gradient-23" cx="43.52" cy="73.35" r="25.07" xlink:href="#radial-gradient-15"/><radialGradient id="radial-gradient-24" cx="43.52" cy="73.35" r="25.07" xlink:href="#radial-gradient-15"/><radialGradient id="radial-gradient-25" cx="43.52" cy="73.35" r="25.07" xlink:href="#radial-gradient-15"/><radialGradient id="radial-gradient-26" cx="43.52" cy="73.35" r="25.07" xlink:href="#radial-gradient-15"/><radialGradient id="radial-gradient-27" cx="43.52" cy="73.35" r="25.07" xlink:href="#radial-gradient-15"/><radialGradient id="radial-gradient-28" cx="43.52" cy="73.35" r="25.07" xlink:href="#radial-gradient-15"/><radialGradient id="radial-gradient-29" cx="43.52" cy="73.35" r="25.07" xlink:href="#radial-gradient-15"/><radialGradient id="radial-gradient-30" cx="43.52" cy="73.35" r="25.07" xlink:href="#radial-gradient-15"/><radialGradient id="radial-gradient-31" cx="43.52" cy="73.35" r="25.07" xlink:href="#radial-gradient-15"/><radialGradient id="radial-gradient-32" cx="43.52" cy="73.35" r="25.07" xlink:href="#radial-gradient-15"/><radialGradient id="radial-gradient-33" cx="43.52" cy="73.35" r="25.07" xlink:href="#radial-gradient-15"/><radialGradient id="radial-gradient-34" cx="43.52" cy="73.35" r="25.07" xlink:href="#radial-gradient-15"/><radialGradient id="radial-gradient-35" cx="43.52" cy="73.35" r="25.07" xlink:href="#radial-gradient-15"/><radialGradient id="radial-gradient-36" cx="43.52" cy="73.35" r="25.07" xlink:href="#radial-gradient-15"/><radialGradient id="radial-gradient-37" cx="43.52" cy="73.35" r="25.07" xlink:href="#radial-gradient-15"/><radialGradient id="radial-gradient-38" cx="43.52" cy="73.35" r="25.07" xlink:href="#radial-gradient-15"/><radialGradient id="radial-gradient-39" cx="43.52" cy="73.35" r="25.07" xlink:href="#radial-gradient-15"/><radialGradient id="radial-gradient-41" cx="43.52" cy="73.35" r="25.07" xlink:href="#radial-gradient-15"/><radialGradient id="radial-gradient-42" cx="43.52" cy="73.35" r="25.07" xlink:href="#radial-gradient-15"/><radialGradient id="radial-gradient-43" cx="43.52" cy="73.35" r="25.07" xlink:href="#radial-gradient-15"/><radialGradient id="radial-gradient-44" cx="43.52" cy="73.35" r="25.07" xlink:href="#radial-gradient-15"/><radialGradient id="radial-gradient-45" cx="43.52" cy="73.35" r="25.07" xlink:href="#radial-gradient-15"/><radialGradient id="radial-gradient-46" cx="43.52" cy="73.35" r="25.07" xlink:href="#radial-gradient-15"/><radialGradient id="radial-gradient-47" cx="43.52" cy="73.35" r="25.07" xlink:href="#radial-gradient-15"/><radialGradient id="radial-gradient-48" cx="43.52" cy="73.35" r="25.07" xlink:href="#radial-gradient-15"/><radialGradient id="radial-gradient-49" cx="43.52" cy="73.35" r="25.07" xlink:href="#radial-gradient-15"/><radialGradient id="radial-gradient-50" cx="43.52" cy="73.35" r="25.07" xlink:href="#radial-gradient-15"/><radialGradient id="radial-gradient-51" cx="43.52" cy="73.35" r="25.07" xlink:href="#radial-gradient-15"/><radialGradient id="radial-gradient-52" cx="43.52" cy="73.35" r="25.07" xlink:href="#radial-gradient-15"/><radialGradient id="radial-gradient-53" cx="43.52" cy="73.35" r="25.07" xlink:href="#radial-gradient-15"/><radialGradient id="radial-gradient-54" cx="43.52" cy="73.35" r="25.07" xlink:href="#radial-gradient-15"/><radialGradient id="radial-gradient-55" cx="43.52" cy="73.35" r="25.07" xlink:href="#radial-gradient-15"/><radialGradient id="radial-gradient-56" cx="43.52" cy="73.35" r="25.07" xlink:href="#radial-gradient-15"/><radialGradient id="radial-gradient-57" cx="43.52" cy="73.35" r="25.07" xlink:href="#radial-gradient-15"/><radialGradient id="radial-gradient-58" cx="43.52" cy="73.35" r="25.07" xlink:href="#radial-gradient-15"/><radialGradient id="radial-gradient-59" cx="43.52" cy="73.35" r="25.07" xlink:href="#radial-gradient-15"/><radialGradient id="radial-gradient-60" cx="43.52" cy="73.35" r="25.07" xlink:href="#radial-gradient-15"/><radialGradient id="radial-gradient-61" cx="43.52" cy="73.35" r="25.07" xlink:href="#radial-gradient-15"/><radialGradient id="radial-gradient-62" cx="43.52" cy="73.35" r="25.07" xlink:href="#radial-gradient-15"/><radialGradient id="radial-gradient-63" cx="43.52" cy="73.35" r="25.07" xlink:href="#radial-gradient-15"/><radialGradient id="radial-gradient-64" cx="43.52" cy="73.35" r="25.07" xlink:href="#radial-gradient-15"/><radialGradient id="radial-gradient-65" cx="43.52" cy="73.35" r="25.07" xlink:href="#radial-gradient-15"/><radialGradient id="radial-gradient-66" cx="43.52" cy="73.35" r="25.07" xlink:href="#radial-gradient-15"/><radialGradient id="radial-gradient-68" cx="43.52" cy="73.35" r="25.07" xlink:href="#radial-gradient-15"/><radialGradient id="radial-gradient-69" cx="43.52" cy="73.35" r="25.07" xlink:href="#radial-gradient-15"/><radialGradient id="radial-gradient-70" cx="43.52" cy="73.35" r="25.07" xlink:href="#radial-gradient-15"/><radialGradient id="radial-gradient-71" cx="43.52" cy="73.35" r="25.07" xlink:href="#radial-gradient-15"/><radialGradient id="radial-gradient-72" cx="43.52" cy="73.35" r="25.07" xlink:href="#radial-gradient-15"/><linearGradient id="linear-gradient-2" x1="30.45" y1="10.38" x2="30.5" y2="12.8" xlink:href="#radial-gradient-13"/><linearGradient id="linear-gradient-3" x1="30.59" y1="10.43" x2="30.36" y2="13.53" xlink:href="#radial-gradient-13"/><linearGradient id="linear-gradient-4" x1="42.98" y1="10.46" x2="43.03" y2="12.9" xlink:href="#radial-gradient-13"/><linearGradient id="linear-gradient-5" x1="43.16" y1="10.13" x2="42.87" y2="14.02" xlink:href="#radial-gradient-13"/><linearGradient id="linear-gradient-6" x1="45.82" y1="17.2" x2="45.86" y2="19.34" xlink:href="#radial-gradient-13"/><linearGradient id="linear-gradient-7" x1="45.98" y1="16.89" x2="45.72" y2="20.34" xlink:href="#radial-gradient-13"/><linearGradient id="linear-gradient-8" x1="46.72" y1="22.77" x2="46.78" y2="25.5" xlink:href="#radial-gradient-13"/><linearGradient id="linear-gradient-9" x1="46.89" y1="22.84" x2="46.63" y2="26.31" xlink:href="#radial-gradient-13"/><linearGradient id="linear-gradient-10" x1="40.99" y1="26.18" x2="41.05" y2="29.22" xlink:href="#radial-gradient-13"/><linearGradient id="linear-gradient-11" x1="41.18" y1="26.24" x2="40.89" y2="30.14" xlink:href="#radial-gradient-13"/><linearGradient id="linear-gradient-12" x1="37.35" y1="27.43" x2="37.43" y2="31.31" xlink:href="#radial-gradient-13"/><linearGradient id="linear-gradient-13" x1="37.6" y1="27.37" x2="37.21" y2="32.62" xlink:href="#radial-gradient-13"/><linearGradient id="linear-gradient-14" x1="33.04" y1="26.47" x2="33.09" y2="29.23" xlink:href="#radial-gradient-13"/><linearGradient id="linear-gradient-15" x1="33.23" y1="26.17" x2="32.92" y2="30.42" xlink:href="#radial-gradient-13"/><linearGradient id="linear-gradient-16" x1="27.27" y1="22.85" x2="27.32" y2="25.3" xlink:href="#radial-gradient-13"/><linearGradient id="linear-gradient-17" x1="27.45" y1="22.52" x2="27.16" y2="26.42" xlink:href="#radial-gradient-13"/><linearGradient id="linear-gradient-18" x1="28.16" y1="17.48" x2="28.2" y2="19.71" xlink:href="#radial-gradient-13"/><linearGradient id="linear-gradient-19" x1="28.29" y1="17.54" x2="28.08" y2="20.38" xlink:href="#radial-gradient-13"/><radialGradient id="radial-gradient-73" cx="36.17" cy="18.8" fx="67.23419941070733" fy="55.08316038737732" r="47.76" gradientUnits="userSpaceOnUse"><stop offset="0.05" stop-color="#fff" stop-opacity="0.5"/><stop offset="0.19" stop-color="#fff" stop-opacity="0.38"/><stop offset="0.42" stop-color="#fff" stop-opacity="0.22"/><stop offset="0.63" stop-color="#fff" stop-opacity="0.1"/><stop offset="0.81" stop-color="#fff" stop-opacity="0.03"/><stop offset="0.93" stop-color="#fff" stop-opacity="0"/></radialGradient></defs><title>NTT_Logo_chữ</title><circle class="cls-1" cx="36.38" cy="35.3" r="33.89" transform="translate(-6.33 62.6) rotate(-76.72)"/><circle class="cls-2" cx="36.38" cy="35.3" r="29.04" transform="translate(-10.74 16.61) rotate(-22.5)"/><path class="cls-3" d="M17.05,36.12V35h2.48v1.11h-.7v4.61H17.75V36.12Z"/><path class="cls-3" d="M20,40.73V35h1.08v2.14h.63V35h1.08v5.72H21.69V38.3h-.63v2.43Z"/><path class="cls-3" d="M23.39,39.17V35h1.08v4.17a1.51,1.51,0,0,0,.05.44c0,.09.12.14.27.14a.27.27,0,0,0,.23-.11.93.93,0,0,0,.08-.47V35h1.08v4.16a1.82,1.82,0,0,1-.38,1.2,1.25,1.25,0,0,1-1,.45,1.28,1.28,0,0,1-1-.44A1.83,1.83,0,0,1,23.39,39.17Z"/><path class="cls-3" d="M26.8,35h2.41v1.1H27.88v1.14H29v1.1H27.88v1.28h1.38v1.1H26.8Zm.36-.34.49-1h.83l.42,1h-.61L28,34.12l-.29.55ZM29,33h.83l-.57.86h-.51Z"/><path class="cls-3" d="M31.48,40.73V35h1.19l.87,3.37V35H34.6v5.72H33.42l-.88-3.53v3.53Z"/><path class="cls-3" d="M35.22,40.73V35H36.3v2.14h.63V35H38v5.72H36.93V38.3H36.3v2.43Z"/><path class="cls-3" d="M39.3,35h1.44l.88,5.72H40.48l-.1-1h-.76l-.11,1H38.43Zm.85-1.31.26,1h-.55l-.64-1Zm-.41,5h.54L40,35.89Z"/><path class="cls-3" d="M43.64,40.73V35h1.18l.87,3.37,0-3.37h1v5.72H45.58L44.7,37.2v3.53Z"/><path class="cls-3" d="M50,34.37h.8v1l-.37.48h-.26v3.37a1.76,1.76,0,0,1-.38,1.2,1.26,1.26,0,0,1-1,.45,1.27,1.27,0,0,1-1-.44,1.77,1.77,0,0,1-.38-1.21V35h1.08v4.17a1.59,1.59,0,0,0,0,.44c0,.09.12.14.27.14a.3.3,0,0,0,.24-.11,1,1,0,0,0,.07-.47V35H50Z"/><path class="cls-3" d="M53.46,35.77a2.41,2.41,0,0,1,.12.8v2.6a1.76,1.76,0,0,1-.38,1.2,1.26,1.26,0,0,1-1,.45,1.27,1.27,0,0,1-1-.44,1.77,1.77,0,0,1-.38-1.21v-2.6a1.82,1.82,0,0,1,.39-1.25,1.29,1.29,0,0,1,1-.4,1.34,1.34,0,0,1,.83.25v-.8h.8v1ZM52.07,33.7H53l-.62,1h-.57Zm-.2,5.58a.84.84,0,0,0,.07.4.25.25,0,0,0,.24.13.27.27,0,0,0,.27-.21,1.08,1.08,0,0,0,0-.32V36.45a1.55,1.55,0,0,0,0-.33.28.28,0,0,0-.28-.19.27.27,0,0,0-.27.19,1.15,1.15,0,0,0,0,.33Z"/><path class="cls-3" d="M54.2,39.17v-2.6a1.81,1.81,0,0,1,.39-1.24,1.3,1.3,0,0,1,1-.41,1.28,1.28,0,0,1,1,.43A1.74,1.74,0,0,1,57,36.57v.53H55.9v-.64a1.42,1.42,0,0,0,0-.33.3.3,0,0,0-.55,0,1.22,1.22,0,0,0,0,.34v2.82a.84.84,0,0,0,.07.4.25.25,0,0,0,.24.13.27.27,0,0,0,.27-.21,1.08,1.08,0,0,0,0-.32v-.83H57v.72a1.82,1.82,0,0,1-.38,1.2,1.26,1.26,0,0,1-1,.45,1.27,1.27,0,0,1-1-.44A1.77,1.77,0,0,1,54.2,39.17Z"/><path class="cls-4" d="M17.23,36.12V35h2.48v1.11H19v4.61H17.93V36.12Z"/><path class="cls-5" d="M20.16,40.73V35h1.08v2.14h.62V35H23v5.72H21.86V38.3h-.62v2.43Z"/><path class="cls-6" d="M23.57,39.17V35h1.08v4.17a1.51,1.51,0,0,0,.05.44c0,.09.11.14.26.14a.3.3,0,0,0,.24-.11,1,1,0,0,0,.07-.47V35h1.09v4.16a1.82,1.82,0,0,1-.38,1.2,1.26,1.26,0,0,1-1,.45,1.27,1.27,0,0,1-1-.44A1.77,1.77,0,0,1,23.57,39.17Z"/><path class="cls-7" d="M27,35h2.4v1.1H28.06v1.14h1.16v1.1H28.06v1.28h1.38v1.1H27Zm.36-.34.48-1h.83l.43,1h-.61l-.26-.55-.3.55ZM29.14,33H30l-.56.86h-.51Z"/><path class="cls-8" d="M31.66,40.73V35h1.18l.87,3.37,0-3.37h1v5.72H33.6l-.88-3.53v3.53Z"/><path class="cls-9" d="M35.4,40.73V35h1.08v2.14h.62V35h1.08v5.72H37.1V38.3h-.62v2.43Z"/><path class="cls-10" d="M39.48,35h1.43l.89,5.72H40.66l-.1-1H39.8l-.11,1H38.6Zm.85-1.31.26,1H40l-.64-1Zm-.42,5h.54l-.25-2.81Z"/><path class="cls-11" d="M43.82,40.73V35H45l.87,3.37V35h1v5.72H45.75l-.87-3.53v3.53Z"/><path class="cls-12" d="M50.19,34.37H51v1l-.38.48h-.26v3.37a1.82,1.82,0,0,1-.38,1.2,1.26,1.26,0,0,1-1,.45,1.28,1.28,0,0,1-1-.44,1.83,1.83,0,0,1-.38-1.21V35h1.08v4.17a1.51,1.51,0,0,0,0,.44c0,.09.12.14.27.14a.27.27,0,0,0,.23-.11.93.93,0,0,0,.08-.47V35h.93Z"/><path class="cls-13" d="M53.63,35.77a2.17,2.17,0,0,1,.13.8v2.6a1.82,1.82,0,0,1-.38,1.2,1.26,1.26,0,0,1-1,.45,1.28,1.28,0,0,1-1-.44A1.83,1.83,0,0,1,51,39.17v-2.6a1.77,1.77,0,0,1,.4-1.25,1.27,1.27,0,0,1,1-.4,1.36,1.36,0,0,1,.83.25v-.8H54v1ZM52.25,33.7h.91l-.63,1H52Zm-.2,5.58a.84.84,0,0,0,.07.4.23.23,0,0,0,.24.13.27.27,0,0,0,.27-.21,1.08,1.08,0,0,0,0-.32V36.45a1.06,1.06,0,0,0,0-.33.27.27,0,0,0-.27-.19.27.27,0,0,0-.27.19,1.15,1.15,0,0,0,0,.33Z"/><path class="cls-14" d="M54.37,39.17v-2.6a1.76,1.76,0,0,1,.4-1.24,1.28,1.28,0,0,1,1-.41,1.29,1.29,0,0,1,1,.43,1.78,1.78,0,0,1,.38,1.22v.53H56.08v-.64a1,1,0,0,0,0-.33.26.26,0,0,0-.27-.19.27.27,0,0,0-.27.18,1.22,1.22,0,0,0,0,.34v2.82a.84.84,0,0,0,.07.4.23.23,0,0,0,.24.13A.27.27,0,0,0,56,39.6a1.08,1.08,0,0,0,0-.32v-.83h1.08v.72a1.81,1.81,0,0,1-.37,1.2,1.27,1.27,0,0,1-1,.45,1.29,1.29,0,0,1-1-.44A1.83,1.83,0,0,1,54.37,39.17Z"/><path class="cls-15" d="M32.94,20.38l-2.38,7.33,6.23-4.53L43,27.71l-2.39-7.33,6.24-4.53H39.17L36.79,8.52l-2.38,7.33H26.7Zm3-2a.79.79,0,0,0-.13.26L28,16.05h6.34Zm3-2.54L37.35,18a.89.89,0,0,0-.36-.11V9.79Zm1.66,4.34-2.72-.88a1.55,1.55,0,0,0,0-.31l7.81-2.54ZM37,23.08V20l.18,0,4.95,6.81ZM33.1,20.54,36,19.6l.12.13-5,6.84Z"/><path class="cls-16" d="M53.43,57.35l-2.2,1a16.17,16.17,0,0,0-2.59-3.44L50,52.73l-3.84-2.84-1.77,1.94a15.94,15.94,0,0,0-4.49-1.5l-.39-2.8H34.77l-.29,2.77a16.14,16.14,0,0,0-4.42,1.38l-2-2-3.74,2.91,1.33,2.13A16.15,16.15,0,0,0,23,58.34l-2.25-1-1,1.74a29.37,29.37,0,0,0,6.21,3.32,11.72,11.72,0,0,1,22.15-.51,29.33,29.33,0,0,0,6-3.53Z"/><path class="cls-17" d="M21.21,55.31s-1.45-1.44.9-3.84C22.11,51.47,22.89,55.11,21.21,55.31Z"/><path class="cls-18" d="M21.29,55.29s-.7,1.79-3.78.48C17.51,55.77,20.45,53.84,21.29,55.29Z"/><path class="cls-19" d="M19,53.35s-1.08,1.57-3.82-.42C15.2,52.93,18.51,51.75,19,53.35Z"/><path class="cls-20" d="M17.25,51.18s-1.19,1.45-3.83-.75C13.42,50.43,16.82,49.56,17.25,51.18Z"/><path class="cls-21" d="M15.43,48.41s-1.24,1.36-3.85-1C11.58,47.44,15.05,46.79,15.43,48.41Z"/><path class="cls-22" d="M14.43,46.16s-1.36,1.22-3.86-1.29C10.57,44.87,14.15,44.54,14.43,46.16Z"/><path class="cls-23" d="M13.17,43.47s-1.65.76-3.44-2.34C9.73,41.13,13.32,41.86,13.17,43.47Z"/><path class="cls-24" d="M12.19,40.32s-1.86.59-3.07-2.89C9.12,37.43,12.68,38.64,12.19,40.32Z"/><path class="cls-25" d="M11.81,36.93s-1.89.32-2.64-3.21C9.17,33.72,12,34.9,11.81,36.93Z"/><path class="cls-26" d="M11.84,34.14s-1.92-.28-1.73-3.86C10.11,30.28,12.56,32.29,11.84,34.14Z"/><path class="cls-27" d="M12.43,30.94s-1.93-.46-1.55-4C10.88,27,13.25,29.18,12.43,30.94Z"/><path class="cls-28" d="M13.31,28.31s-2-.82-1.1-4.44C12.21,23.87,14.45,26.6,13.31,28.31Z"/><path class="cls-29" d="M14.56,25.86s-1.86-1.23-.32-4.54C14.24,21.32,16,24.45,14.56,25.86Z"/><path class="cls-30" d="M15.88,23.59s-1.52-1.39.38-4.18C16.26,19.41,17.4,22.52,15.88,23.59Z"/><path class="cls-31" d="M17.48,21.33s-1.18-1.8,1.32-3.84C18.8,17.49,19.21,20.8,17.48,21.33Z"/><path class="cls-32" d="M19,53.34s-1.42-1.5,1-3.63C19.92,49.71,20.63,53.27,19,53.34Z"/><path class="cls-33" d="M17.23,51.19s-1.38-1.49,1-3.51C18.25,47.68,18.9,51.17,17.23,51.19Z"/><path class="cls-34" d="M15.43,48.41s-1.16-1.74,1.46-3.3C16.89,45.11,17.06,48.7,15.43,48.41Z"/><path class="cls-35" d="M14.43,46.17s-1.34-1.66,1.12-3.39C15.55,42.78,16.09,46.34,14.43,46.17Z"/><path class="cls-36" d="M13.16,43.47s-1-1.92,1.71-3C14.87,40.42,14.76,44,13.16,43.47Z"/><path class="cls-37" d="M12.18,40.31s-.48-2.15,2.43-2.42C14.61,37.89,13.58,41.31,12.18,40.31Z"/><path class="cls-38" d="M11.78,36.93s.08-2.31,3.33-2C15.11,34.94,13,38.26,11.78,36.93Z"/><path class="cls-39" d="M11.78,34.09s.41-2.28,3.58-1.5C15.36,32.59,12.82,35.58,11.78,34.09Z"/><path class="cls-40" d="M12.39,30.92s.53-2,3.28-.84C15.67,30.08,13.2,32.45,12.39,30.92Z"/><path class="cls-41" d="M13.26,28.24s.66-2,3.33-.44C16.59,27.8,14,29.93,13.26,28.24Z"/><path class="cls-33" d="M14.48,25.77s1-2,3.83-.23C18.31,25.54,15.12,27.5,14.48,25.77Z"/><path class="cls-42" d="M15.79,23.52s1-2,3.83-.16C19.62,23.36,16.43,25.27,15.79,23.52Z"/><path class="cls-43" d="M17.48,21.32s1.06-1.93,3.83,0C21.31,21.36,18,23.09,17.48,21.32Z"/><path class="cls-44" d="M19.26,19.74s.54-3.51,4.85-2.61C24.11,17.13,22.15,20.6,19.26,19.74Z"/><path class="cls-45" d="M52.12,55s1.46-1.45-.89-3.84C51.23,51.18,50.44,54.82,52.12,55Z"/><path class="cls-46" d="M52,55s.71,1.79,3.79.48C55.83,55.48,52.89,53.55,52,55Z"/><path class="cls-47" d="M54.31,53.06s1.08,1.57,3.82-.42C58.13,52.64,54.83,51.46,54.31,53.06Z"/><path class="cls-48" d="M56.09,50.89s1.18,1.45,3.82-.75C59.91,50.14,56.51,49.26,56.09,50.89Z"/><path class="cls-49" d="M57.9,48.12s1.25,1.36,3.86-1C61.76,47.15,58.28,46.5,57.9,48.12Z"/><path class="cls-50" d="M58.9,45.87s1.36,1.22,3.86-1.29C62.76,44.58,59.18,44.25,58.9,45.87Z"/><path class="cls-51" d="M60.17,43.17s1.65.76,3.43-2.33C63.6,40.84,60,41.56,60.17,43.17Z"/><path class="cls-52" d="M61.14,40s1.87.6,3.08-2.88C64.22,37.14,60.65,38.34,61.14,40Z"/><path class="cls-53" d="M61.52,36.64s1.89.32,2.64-3.21C64.16,33.43,61.32,34.61,61.52,36.64Z"/><path class="cls-54" d="M61.49,33.85s1.93-.28,1.74-3.86C63.23,30,60.77,32,61.49,33.85Z"/><path class="cls-55" d="M60.91,30.65s1.92-.46,1.54-4C62.45,26.68,60.08,28.89,60.91,30.65Z"/><path class="cls-56" d="M60,28s2-.82,1.1-4.45C61.13,23.57,58.88,26.31,60,28Z"/><path class="cls-57" d="M58.77,25.57s1.86-1.23.32-4.54C59.09,21,57.33,24.16,58.77,25.57Z"/><path class="cls-58" d="M57.45,23.3s1.52-1.39-.38-4.18C57.07,19.12,55.93,22.23,57.45,23.3Z"/><path class="cls-59" d="M55.85,21s1.18-1.8-1.31-3.85C54.54,17.19,54.12,20.51,55.85,21Z"/><path class="cls-60" d="M54.38,53s1.43-1.49-1-3.62C53.41,49.42,52.7,53,54.38,53Z"/><path class="cls-61" d="M56.1,50.9s1.39-1.49-1-3.51C55.08,47.39,54.43,50.88,56.1,50.9Z"/><path class="cls-62" d="M57.91,48.12s1.16-1.74-1.47-3.3C56.44,44.82,56.27,48.41,57.91,48.12Z"/><path class="cls-63" d="M58.9,45.87s1.34-1.65-1.12-3.38C57.78,42.49,57.24,46.05,58.9,45.87Z"/><path class="cls-64" d="M60.17,43.18s1-1.92-1.7-3C58.47,40.13,58.57,43.72,60.17,43.18Z"/><path class="cls-65" d="M61.15,40s.49-2.15-2.43-2.42C58.72,37.6,59.75,41,61.15,40Z"/><path class="cls-66" d="M61.55,36.64s-.08-2.31-3.33-2C58.22,34.65,60.31,38,61.55,36.64Z"/><path class="cls-67" d="M61.55,33.8s-.4-2.28-3.57-1.5C58,32.3,60.51,35.29,61.55,33.8Z"/><path class="cls-61" d="M60.94,30.63s-.52-2-3.27-.84C57.67,29.79,60.13,32.16,60.94,30.63Z"/><path class="cls-68" d="M60.08,28s-.67-2-3.33-.44C56.75,27.51,59.38,29.64,60.08,28Z"/><path class="cls-69" d="M58.85,25.47s-1-2-3.82-.22C55,25.25,58.22,27.21,58.85,25.47Z"/><path class="cls-70" d="M57.54,23.23s-1-2-3.83-.16C53.71,23.07,56.91,25,57.54,23.23Z"/><path class="cls-71" d="M55.86,21s-1.06-1.93-3.84,0C52,21.07,55.31,22.8,55.86,21Z"/><path class="cls-72" d="M54.07,19.45s-.54-3.51-4.85-2.61C49.22,16.84,51.18,20.31,54.07,19.45Z"/><line class="cls-73" x1="28.48" y1="10.38" x2="32.48" y2="13.59"/><path class="cls-74" d="M28.48,10.37a11.17,11.17,0,0,1,1.08.71c.34.26.66.55,1,.83l1,.83,1,.84v0l-1-.77-1-.77c-.34-.26-.7-.5-1-.78a11.14,11.14,0,0,1-.93-.89Z"/><line class="cls-75" x1="45.2" y1="10.38" x2="40.82" y2="13.78"/><path class="cls-76" d="M45.21,10.39c-.33.33-.67.64-1,.94s-.74.55-1.11.83L42,13l-1.13.81v0l1.06-.89L43,12c.36-.29.7-.6,1.08-.87a11.59,11.59,0,0,1,1.16-.76Z"/><line class="cls-77" x1="47.9" y1="17.13" x2="43.8" y2="20.11"/><path class="cls-78" d="M47.91,17.14A10.77,10.77,0,0,1,47,18c-.33.26-.69.49-1,.73l-1,.71-1,.71v0l1-.79,1-.78c.34-.25.66-.53,1-.76a10.81,10.81,0,0,1,1.09-.65Z"/><line class="cls-79" x1="49.02" y1="26.39" x2="44.5" y2="22.77"/><path class="cls-80" d="M49,26.4a14.11,14.11,0,0,1-1.2-.82c-.39-.29-.75-.61-1.11-.92l-1.11-.94-1.1-.94,0,0,1.16.86,1.15.88c.38.29.78.57,1.15.89a12.2,12.2,0,0,1,1.05,1Z"/><line class="cls-81" x1="43.01" y1="30.21" x2="39.06" y2="26.17"/><path class="cls-82" d="M43,30.21a11.78,11.78,0,0,1-1.07-.92c-.34-.33-.65-.69-1-1l-1-1-1-1.05h0l1,1,1,1c.34.33.69.64,1,1A11.94,11.94,0,0,1,43,30.2Z"/><line class="cls-83" x1="37.5" y1="32.63" x2="37.3" y2="27.37"/><path class="cls-84" d="M37.49,32.63a10,10,0,0,1-.16-1.31c0-.44,0-.88,0-1.32V27.37h0l.1,1.31L37.5,30c0,.44.08.88.08,1.32a9.82,9.82,0,0,1-.07,1.32Z"/><line class="cls-85" x1="31.14" y1="30.21" x2="35.01" y2="26.39"/><path class="cls-86" d="M31.13,30.2a12.81,12.81,0,0,1,.89-1c.31-.33.65-.62,1-.93l1-.93,1-.92v0l-.93,1-.94,1c-.31.32-.61.66-.94,1a10.76,10.76,0,0,1-1.05.87Z"/><line class="cls-87" x1="25.14" y1="26.17" x2="29.47" y2="22.77"/><path class="cls-88" d="M25.13,26.16c.32-.33.66-.64,1-.94s.73-.55,1.1-.83l1.11-.82,1.11-.81v0l-1,.89-1.06.88c-.35.29-.69.6-1.06.87a12.7,12.7,0,0,1-1.15.76Z"/><line class="cls-89" x1="26.12" y1="17.48" x2="30.26" y2="20.43"/><path class="cls-90" d="M26.12,17.47a9.94,9.94,0,0,1,1.1.65c.36.23.69.5,1,.76l1,.76,1,.78,0,0-1.06-.69L28.13,19c-.35-.24-.72-.46-1.05-.72a8.5,8.5,0,0,1-1-.83Z"/><path class="cls-91" d="M63,14.26a33.89,33.89,0,1,0-47.1,48A50.21,50.21,0,0,0,35.54,43.14C45,27,52.92,16.72,63,14.26Z"/><g id="HỆ_THỐNG_HÓA_ĐƠN_-_TỔNG_CỤC_THUẾ-2" data-name="HỆ THỐNG HÓA ĐƠN - TỔNG CỤC THUẾ-2" class="cls-92"><g class="cls-92"><path class="cls-93" d="M89.61,11.8h4.92v8h2.3v-8h4.92V34.09H96.83V23.84h-2.3V34.09H89.61Z"/><path class="cls-93" d="M104.75,34.09V11.8h10V16h-5.13v3.79h4.94V24h-4.94v5.81H115v4.24Zm2.83-27.18h4l1.89,3.42h-2.93l-1-1.49-.94,1.49H105.7Zm.75,32.37V36.14h3.21v3.14Z"/><path class="cls-93" d="M123.6,15.88V11.8h10.66v4.08h-2.87V34.09h-4.93V15.88Z"/><path class="cls-93" d="M136.28,11.8h4.92v8h2.3v-8h4.92V34.09H143.5V23.84h-2.3V34.09h-4.92Z"/><path class="cls-93" d="M151.19,19a15.15,15.15,0,0,1,.35-3.51,5.67,5.67,0,0,1,1.09-2.3q1.37-1.66,4.76-1.66t4.77,1.66q1.38,1.68,1.43,5.81V26.9q0,4.13-1.43,5.82c-.91,1.1-2.5,1.66-4.77,1.66s-3.83-.56-4.76-1.66-1.4-3.07-1.44-5.82ZM155.4,6.91h4l1.9,3.42h-2.93l-1-1.49-.94,1.49h-2.93Zm1.8-4.21h3.59l-2,3.43h-2.9Zm-1,15.63v9.88a3.11,3.11,0,0,0,.27,1.64,1.2,1.2,0,0,0,.94.32,1.1,1.1,0,0,0,.94-.35,3.76,3.76,0,0,0,.27-1.77V17.84a3.28,3.28,0,0,0-.27-1.72,1,1,0,0,0-.94-.37,1.07,1.07,0,0,0-.94.33,3,3,0,0,0-.27,1.6Z"/><path class="cls-93" d="M166.36,11.8h4.57c.39.61.85,1.49,1.41,2.61.41.88.87,2,1.37,3.27V11.8h4.89V34.09h-4.89V29.72a23.09,23.09,0,0,0-.62-5.45,20.58,20.58,0,0,0-1.8-5V34.09h-4.93Z"/><path class="cls-93" d="M181.4,19a15.15,15.15,0,0,1,.35-3.51,5.67,5.67,0,0,1,1.09-2.3q1.36-1.66,4.76-1.66t4.77,1.63c.92,1.09,1.4,2.89,1.43,5.38v.91h-5V17.84a3.28,3.28,0,0,0-.27-1.72,1,1,0,0,0-.94-.37,1.07,1.07,0,0,0-.94.33,3,3,0,0,0-.27,1.6v9.81a5,5,0,0,0,.3,2.2,1.34,1.34,0,0,0,1.1.45,1.19,1.19,0,0,0,1.12-.5,6.28,6.28,0,0,0,.32-2.34v-3h-1.31V20.67h5.88V34.09h-2.09l-.62-.94a6.24,6.24,0,0,1-1.69.94,6.87,6.87,0,0,1-2.12.29,5.52,5.52,0,0,1-4.51-1.73c-.88-1.11-1.33-3-1.37-5.75Z"/><path class="cls-93" d="M203.88,11.8h4.93v8h2.29v-8H216V34.09H211.1V23.84h-2.29V34.09h-4.93Z"/><path class="cls-93" d="M218.8,19a15.15,15.15,0,0,1,.35-3.51,5.53,5.53,0,0,1,1.08-2.3c.92-1.11,2.5-1.66,4.77-1.66s3.82.55,4.76,1.66,1.4,3.06,1.43,5.81V26.9c0,2.75-.47,4.69-1.43,5.82s-2.49,1.66-4.76,1.66-3.83-.56-4.77-1.66-1.4-3.07-1.43-5.82Zm6-12.07h3.58l-2,3.42h-2.9Zm-1,11.42v9.88a3.11,3.11,0,0,0,.27,1.64,1.18,1.18,0,0,0,.94.32,1.11,1.11,0,0,0,.94-.35,3.76,3.76,0,0,0,.27-1.77V17.84a3.28,3.28,0,0,0-.27-1.72,1,1,0,0,0-.94-.37,1.07,1.07,0,0,0-.94.33,3,3,0,0,0-.27,1.6Z"/><path class="cls-93" d="M233.52,34.09V29.72a50.6,50.6,0,0,1,.94-10.58,27.09,27.09,0,0,1,1.21-4,17.54,17.54,0,0,1,1.75-3.37h4.42a22.75,22.75,0,0,1,3,7.38,36.47,36.47,0,0,1,.72,4.75q.24,2.64.24,5.79v4.37h-4.94V30.41h-2.41v3.68Zm4.89-7.87h2.41c0-2-.15-3.86-.35-5.64a22.88,22.88,0,0,0-.85-4.18,23.16,23.16,0,0,0-.86,4.18C238.6,22,238.49,23.85,238.41,26.22Z"/><path class="cls-93" d="M255.94,11.8h6.91a5.73,5.73,0,0,1,4.34,1.43c.88.92,1.34,2.44,1.37,4.58V28.08a6.75,6.75,0,0,1-1.34,4.61,6,6,0,0,1-4.37,1.4h-6.91V22.94h-1.5V20.67h1.5ZM260.86,16v4.63h1.5v2.27h-1.5v6.91h.91a2,2,0,0,0,1.42-.37c.25-.22.38-.81.38-1.78V18.2a2.83,2.83,0,0,0-.38-1.8,2.26,2.26,0,0,0-1.42-.36Z"/><path class="cls-93" d="M271.11,19a14.62,14.62,0,0,1,.35-3.51,5.53,5.53,0,0,1,1.08-2.3q1.36-1.66,4.77-1.66c2.23,0,3.81.55,4.76,1.66s1.4,3.06,1.43,5.81V26.9c0,2.75-.47,4.69-1.43,5.82s-2.49,1.66-4.76,1.66-3.83-.56-4.77-1.66-1.4-3.07-1.43-5.82Zm5-.65v9.88a3,3,0,0,0,.28,1.64,1.18,1.18,0,0,0,.94.32,1.11,1.11,0,0,0,.94-.35,3.76,3.76,0,0,0,.27-1.77V17.84a3.28,3.28,0,0,0-.27-1.72,1,1,0,0,0-.94-.37c-.48,0-.8.11-.94.33a2.91,2.91,0,0,0-.28,1.6Zm5-8.63h3.33v4.49l-2.26,2-.61-.78.88-1.21h-1.34Z"/><path class="cls-93" d="M286.28,11.8h4.57c.38.61.85,1.49,1.4,2.61.41.88.87,2,1.37,3.27V11.8h4.89V34.09h-4.89V29.72a23.09,23.09,0,0,0-.62-5.45,19.77,19.77,0,0,0-1.8-5V34.09h-4.92Z"/><path class="cls-93" d="M309.19,11.8h6.91a5.74,5.74,0,0,1,4.34,1.43c.88.92,1.34,2.44,1.37,4.58V28.08a6.75,6.75,0,0,1-1.34,4.61,6,6,0,0,1-4.37,1.4h-6.91V22.94h-1.5V20.67h1.5ZM314.11,16v4.63h1.5v2.27h-1.5v6.91H315a2,2,0,0,0,1.42-.37c.25-.22.38-.81.38-1.78V18.2a2.83,2.83,0,0,0-.38-1.8A2.26,2.26,0,0,0,315,16Z"/><path class="cls-93" d="M324.58,11.8h4.92V34.09h-4.92Z"/><path class="cls-93" d="M332.67,34.09V11.8h10.06V16H337.6v3.79h4.94V24H337.6v5.81H343v4.24Zm2.84-27.18h4l1.9,3.42h-2.93l-1-1.49-.94,1.49h-2.93Zm.75,32.37V36.14h3.2v3.14Z"/><path class="cls-93" d="M345.31,11.8h4.57c.38.61.85,1.49,1.4,2.61.42.88.87,2,1.37,3.27V11.8h4.9V34.09h-4.9V29.72a22.58,22.58,0,0,0-.62-5.45,19.77,19.77,0,0,0-1.8-5V34.09h-4.92Z"/><path class="cls-93" d="M366.79,15.88V11.8h10.66v4.08h-2.87V34.09h-4.93V15.88Z"/><path class="cls-93" d="M391.67,15.75V26.9c0,2.75-.47,4.69-1.43,5.82s-2.48,1.66-4.73,1.66-3.79-.56-4.73-1.66-1.41-3.09-1.41-5.82V11.8h4.93V28.21a3.11,3.11,0,0,0,.27,1.64,1.18,1.18,0,0,0,.94.32,1.25,1.25,0,0,0,1-.38,4.69,4.69,0,0,0,.25-2v-16h3.36V9.7h3.33v4.49Zm-7.26-5a3.92,3.92,0,0,1,.17-.94,5,5,0,0,1,.55-1.21,1.28,1.28,0,0,1,.14-.24A2.92,2.92,0,0,0,385.8,7a1.55,1.55,0,0,0-.07-.56.32.32,0,0,0-.4,0,2,2,0,0,0-.06.59V8h-2.12V7.13a3,3,0,0,1,.54-2,2.4,2.4,0,0,1,1.82-.6,2.55,2.55,0,0,1,1.86.63A2.39,2.39,0,0,1,388,7a4.22,4.22,0,0,1-.8,2.26L387,9.5a8.19,8.19,0,0,0-.52,1,1.21,1.21,0,0,0-.08.25Z"/></g></g><path class="cls-94" d="M116.28,43.25c0,.89-.92,1.56-2.77,2a19.81,19.81,0,0,1-4.53.46c-.34,0-.62,0-.86,0-.79.25-1.58,1.13-2.36,2.65-.56,1.09-1.54,3.48-2.92,7.18a9.82,9.82,0,0,1-2,3.24A7,7,0,0,1,98,60.63c-.06,0-.1.06-.11.1l.11,0a27.77,27.77,0,0,1,3.64-.27,13.36,13.36,0,0,1,2,.15c1,.15,1.52.38,1.52.68,0,.11-.33.34-1,.71a4.71,4.71,0,0,1-1.14.55c-.09,0-.14,0-.14-.12s.06-.14.18-.21.17-.14.17-.21c0-.53-1-.8-3.1-.8a29.15,29.15,0,0,0-7.57,1.31,1.84,1.84,0,0,1-.47.08c-.14,0-.2,0-.2-.11a.33.33,0,0,1,.17-.25,4.92,4.92,0,0,1,1.64-.85l2.62-.52a4,4,0,0,0,1-.35,6.44,6.44,0,0,0,2.81-3.17,48,48,0,0,0,1.91-5.69,16.46,16.46,0,0,1,1.72-4.39,4.3,4.3,0,0,1,3.47-1.88.46.46,0,0,0,.21,0,83.83,83.83,0,0,0-8.29-2,7.81,7.81,0,0,0-1.62-.17,5.36,5.36,0,0,0-3.43,1.09,3.84,3.84,0,0,0-1.5,3.18,6.05,6.05,0,0,0,2.15,4.26c.16.17.25.29.25.38s-.08.16-.23.16a1.85,1.85,0,0,1-.7-.21c-1.9-.9-2.86-2.21-2.86-3.94a5.52,5.52,0,0,1,2.81-4.66,9.47,9.47,0,0,1,5.41-1.68,10.87,10.87,0,0,1,2.91.39q.75.21,4.72,1.48a19,19,0,0,0,4.64,1.09,4.08,4.08,0,0,0,3.57-1.83.62.62,0,0,1,.46-.33C116.12,42.6,116.28,42.82,116.28,43.25Z"/><path class="cls-94" d="M108.12,59.61a6.81,6.81,0,0,1,.63-2.34l1-2.23a12.28,12.28,0,0,0,1-2.75c0-.26-.16-.4-.46-.4a2.55,2.55,0,0,0-.44.07,2.62,2.62,0,0,1-.43.07c-.14,0-.21-.06-.21-.16a.29.29,0,0,1,.2-.31c.14,0,.67-.18,1.59-.4a15.52,15.52,0,0,1,1.61-.37c.32,0,.48.19.48.56a5.13,5.13,0,0,1-.64,2c-.43.88-1,2.22-1.86,4a4.39,4.39,0,0,0-.42,1.62q0,.54.39.54a4.29,4.29,0,0,0,1.9-1,6.26,6.26,0,0,1,1.58-1,.1.1,0,0,1,.08,0c0,.25-.61.82-1.84,1.71a6.16,6.16,0,0,1-3.26,1.46C108.44,60.71,108.12,60.34,108.12,59.61Zm4.3-11.18a1.24,1.24,0,0,1,.4-.81,1.41,1.41,0,0,1,.79-.49,4.06,4.06,0,0,0,2.26-1.23l.08-.06c.09,0,.13.06.13.19,0,.37-.36.89-1.08,1.57a3.47,3.47,0,0,1-2.29,1.13A.26.26,0,0,1,112.42,48.43Z"/><path class="cls-94" d="M123.27,56.2c0,.22-.34.59-1,1.14q-4.35,3.54-7,3.54a1.53,1.53,0,0,1-1.75-1.72,7.89,7.89,0,0,1,1.34-3.86,9.9,9.9,0,0,1,2.92-3.3,6.39,6.39,0,0,1,3.4-1.29c.77,0,1.16.26,1.16.78,0,1.66-1.17,3-3.49,4.13a4.66,4.66,0,0,1-1.39.51c-.08,0-.12-.06-.12-.16s.11-.29.33-.41a14.73,14.73,0,0,0,1.93-1.21,2.52,2.52,0,0,0,1-1.9c0-.51-.17-.77-.51-.77-.77,0-1.68.89-2.73,2.66a8.68,8.68,0,0,0-1.51,4.08c0,.72.28,1.08.83,1.08a5.3,5.3,0,0,0,2.65-.88A26.59,26.59,0,0,0,121.66,57a3.87,3.87,0,0,1,1.5-.88C123.23,56.1,123.27,56.13,123.27,56.2ZM124,50c0,.08-.06.13-.19.13a12,12,0,0,1-1-1.3c-.64-.87-1.22-1.3-1.76-1.3a6.16,6.16,0,0,0-2.49,1c-1.17.7-1.78,1-1.82,1s-.2,0-.2-.1a8.12,8.12,0,0,1,1.77-1.64,5.71,5.71,0,0,1,2.91-1.58,1.81,1.81,0,0,1,1.41,1A14.89,14.89,0,0,1,124,49.94Zm-.2-7.24a.53.53,0,0,1-.28.51l-1.42.75-3.19,1.7a.44.44,0,0,1-.24.07c-.07,0-.1,0-.1-.12a.36.36,0,0,1,.13-.24c2.56-2.48,4-3.73,4.48-3.73.16,0,.31.14.45.43A1.49,1.49,0,0,1,123.77,42.76Z"/><path class="cls-94" d="M123.15,52.13c0-.11.16-.27.47-.46a4.46,4.46,0,0,1,2-.29c.07,0,.14-.07.21-.22.34-.72.81-1.8,1.41-3.26.09-.27.42-.56,1-.86a3.21,3.21,0,0,1,1.31-.42c.1,0,.16.07.16.2A12.85,12.85,0,0,1,128.63,49a9.31,9.31,0,0,0-1.08,2.37l0,0c.36,0,.91,0,1.63,0l1.64,0c.29,0,.43,0,.43.13s-.16.3-.5.46a2,2,0,0,1-.79.24h-2.81c-.07,0-.13.07-.19.2q-2.07,4.57-2.07,6.06c0,.69.28,1,.85,1a5.17,5.17,0,0,0,2.36-.9c1-.61,1.52-.91,1.56-.91a.07.07,0,0,1,.08.08c0,.32-.67.87-2,1.66A7.63,7.63,0,0,1,124,60.79a1.26,1.26,0,0,1-1.44-1.42,12.38,12.38,0,0,1,1.33-4.17c.88-2,1.32-2.91,1.32-2.86s0-.1-.15-.1h-1.71C123.23,52.24,123.15,52.2,123.15,52.13Z"/><path class="cls-94" d="M146.33,44.14q0,.6-.54.6a2.83,2.83,0,0,1-.68-.24,2.55,2.55,0,0,0-.87-.23c-.78,0-1.63.69-2.55,2.06a34.29,34.29,0,0,0-1.83,3.18,26.26,26.26,0,0,0-1.51,3.29.7.7,0,0,0,.25-.16,7.42,7.42,0,0,1,4.4-2c.81,0,1.22.36,1.22,1.06s-.53,1.5-1.57,2.29a9,9,0,0,1-3.32,1.49c-.28.07-.41.15-.41.24a6.2,6.2,0,0,0,1.33,1.91c1,1.21,1.9,1.82,2.64,1.82a2.69,2.69,0,0,0,1.47-.58,3.18,3.18,0,0,1,1-.58c.07,0,.1,0,.1.11,0,.23-.48.68-1.43,1.34a5.11,5.11,0,0,1-2.67,1.08,2.9,2.9,0,0,1-2-1,14.33,14.33,0,0,1-1.49-1.88,6.5,6.5,0,0,0-1-1.29s-.1,0-.15.15-.32.7-.64,1.47a8.73,8.73,0,0,0-.52,1.37.36.36,0,0,1-.17.32,15.61,15.61,0,0,1-2.14.89c-.09,0-.14,0-.14-.13a.63.63,0,0,1,.22-.39A27.53,27.53,0,0,0,135,56.38c1.12-2.81,2-4.86,2.61-6.17,1.37-2.88,2.56-4.66,3.55-5.34a11.17,11.17,0,0,1,2.68-1.33,5.49,5.49,0,0,1,1.56-.4C146,43.14,146.33,43.47,146.33,44.14Zm-3.92,8.4c0-.47-.24-.7-.74-.7a3.65,3.65,0,0,0-2.33,1.24c-.75.71-1.12,1.16-1.12,1.34s.13.31.38.31A5.76,5.76,0,0,0,141,54.2C141.92,53.76,142.41,53.21,142.41,52.54Z"/><path class="cls-94" d="M144.81,59.61a6.81,6.81,0,0,1,.63-2.34l1-2.23a12.28,12.28,0,0,0,1-2.75c0-.26-.16-.4-.46-.4a2.55,2.55,0,0,0-.44.07,2.62,2.62,0,0,1-.43.07c-.14,0-.22-.06-.22-.16a.3.3,0,0,1,.21-.31c.14,0,.67-.18,1.59-.4a15.52,15.52,0,0,1,1.61-.37c.32,0,.48.19.48.56a5.13,5.13,0,0,1-.64,2c-.43.88-1.05,2.22-1.86,4a4.39,4.39,0,0,0-.42,1.62q0,.54.39.54a4.29,4.29,0,0,0,1.9-1,6.26,6.26,0,0,1,1.58-1,.1.1,0,0,1,.08,0c0,.25-.61.82-1.84,1.71a6.16,6.16,0,0,1-3.26,1.46C145.13,60.71,144.81,60.34,144.81,59.61Zm4.3-11.18a1.24,1.24,0,0,1,.4-.81,1.41,1.41,0,0,1,.79-.49,4.06,4.06,0,0,0,2.26-1.23l.08-.06c.09,0,.13.06.13.19,0,.37-.36.89-1.08,1.57a3.47,3.47,0,0,1-2.29,1.13A.26.26,0,0,1,149.11,48.43Z"/><path class="cls-94" d="M152.63,63.55c0,.13-.22.33-.67.6a2.27,2.27,0,0,1-.9.4c-.17,0-.36-.17-.59-.5a1.58,1.58,0,0,1-.35-.77c0-.16.22-.38.64-.64a2.21,2.21,0,0,1,.92-.38c.17,0,.37.16.6.5A1.63,1.63,0,0,1,152.63,63.55ZM160,56.2c0,.22-.34.59-1,1.14q-4.35,3.54-7,3.54a1.53,1.53,0,0,1-1.75-1.72,7.89,7.89,0,0,1,1.34-3.86,9.9,9.9,0,0,1,2.92-3.3,6.39,6.39,0,0,1,3.4-1.29c.77,0,1.16.26,1.16.78,0,1.66-1.17,3-3.49,4.13a4.66,4.66,0,0,1-1.39.51c-.08,0-.12-.06-.12-.16s.11-.29.33-.41a14.73,14.73,0,0,0,1.93-1.21,2.52,2.52,0,0,0,1-1.9c0-.51-.17-.77-.51-.77-.77,0-1.68.89-2.73,2.66a8.68,8.68,0,0,0-1.51,4.08c0,.72.28,1.08.83,1.08a5.3,5.3,0,0,0,2.65-.88A26.59,26.59,0,0,0,158.35,57a3.87,3.87,0,0,1,1.5-.88C159.92,56.1,160,56.13,160,56.2Zm.7-6.2c0,.08-.06.13-.19.13a12,12,0,0,1-1-1.3c-.64-.87-1.22-1.3-1.76-1.3a6.16,6.16,0,0,0-2.49,1c-1.17.7-1.78,1-1.82,1s-.2,0-.2-.1A8.12,8.12,0,0,1,155,47.87a5.71,5.71,0,0,1,2.91-1.58,1.81,1.81,0,0,1,1.41,1,14.89,14.89,0,0,1,1.37,2.67Z"/><path class="cls-94" d="M175.37,51.92a3.63,3.63,0,0,1-.43,1.6q-2.19,4.35-2.19,5.52c0,.36.14.54.43.54a4.6,4.6,0,0,0,1.93-1,7.66,7.66,0,0,1,1.63-1s.08,0,.08.05c0,.31-.68.92-2,1.82a6.47,6.47,0,0,1-3.25,1.36,1,1,0,0,1-1.1-1.13A9.45,9.45,0,0,1,171.61,56a10.15,10.15,0,0,0,1.19-3.2c0-.15-.09-.23-.26-.23-.52,0-1.28.47-2.28,1.42a15.58,15.58,0,0,0-3.5,5.3,4.82,4.82,0,0,1-.28.59,7.52,7.52,0,0,1-1.08.5,5.47,5.47,0,0,1-1.05.36c-.11,0-.16-.09-.16-.26a16.12,16.12,0,0,1,1.58-3.79,14.62,14.62,0,0,0,1.59-3.89c0-.26-.12-.39-.33-.39a2.73,2.73,0,0,0-1.14.5c-2.06,1.26-3.76,3.58-5.07,7-.15.09-.5.25-1,.5a8.41,8.41,0,0,1-.94.38c-.08,0-.12,0-.12-.13a29.23,29.23,0,0,1,1.71-4.3,15.62,15.62,0,0,0,1.4-3.93c0-.32-.18-.49-.54-.49a3,3,0,0,0-.48.07,3.12,3.12,0,0,1-.47.07c-.14,0-.21-.07-.21-.19a.29.29,0,0,1,.21-.3,12.07,12.07,0,0,1,3.4-.83c.29,0,.43.16.43.5a3.76,3.76,0,0,1-.3,1.3c-.3.79-.46,1.21-.47,1.27l0,0,2.19-1.47a6.62,6.62,0,0,1,3.15-1.4c.6,0,.9.34.9,1a4.09,4.09,0,0,1-.36,1.53c0,.09-.09.25-.16.46q3.9-3,5.34-3C175.07,50.94,175.37,51.27,175.37,51.92Z"/><path class="cls-94" d="M186,54.58a8.59,8.59,0,0,1-1.6-.23,8,8,0,0,0-1.6-.24,1.11,1.11,0,0,0-.59.16,1,1,0,0,1-.36.15c-.12,0-.18,0-.18-.13s.23-.44.71-.77A2.71,2.71,0,0,1,184,53a2.67,2.67,0,0,1,.51,0,13.53,13.53,0,0,0,2.59.4,1.72,1.72,0,0,0,1-.25,3.15,3.15,0,0,1,.42-.24c.12,0,.19.06.19.17a.43.43,0,0,1-.08.21A2.82,2.82,0,0,1,186,54.58Z"/><path class="cls-94" d="M214.33,43.25c0,.22-.07.34-.2.34a.81.81,0,0,1-.24-.06.84.84,0,0,0-.26-.06c-.6,0-1.23.63-1.89,1.88-.53,1-1.19,2.5-2,4.41a16.83,16.83,0,0,0-1.39,4.4c0,.05.09.08.27.08,1.44,0,2.32-.31,2.65-.92.06-.13.12-.19.18-.19s.23.12.23.35q0,.59-.93,1.08A4.82,4.82,0,0,1,209,55l-.5,0a.45.45,0,0,0-.36.38,15.27,15.27,0,0,0-.54,4.13q0,2,.87,2a1.5,1.5,0,0,0,.68-.26l.45-.25c.08,0,.11,0,.11.13a.46.46,0,0,1-.16.35,3,3,0,0,1-2.24.81c-1.26,0-1.88-.75-1.88-2.24a18.73,18.73,0,0,1,.55-3.5c.2-.88.3-1.31.3-1.27,0-.12-.09-.18-.26-.18-1.27,0-3.16,0-5.68-.13h-.07a.63.63,0,0,0-.5.23l-1.63,1.85a54.54,54.54,0,0,1-5.81,5.7q-4,3.27-6.89,3.27a3.57,3.57,0,0,1-2.22-.7,2.46,2.46,0,0,1-1-2,2.8,2.8,0,0,1,.12-.78q.17-.54.42-.54t.36.45c.24,1.35,1.2,2,2.89,2a8.14,8.14,0,0,0,5.45-2.29,29,29,0,0,0,3.23-3.33q1.44-1.71,3-3.75c0-.07-.13-.11-.37-.11a10.89,10.89,0,0,0-4.88.82A3.25,3.25,0,0,0,191.15,57a9.66,9.66,0,0,0-.66,1.59c-.06.18-.16.26-.29.26s-.36-.12-.5-.38a1.32,1.32,0,0,1-.18-.64,2.48,2.48,0,0,1,1-1.74,8.12,8.12,0,0,1,2.48-1.45,19.58,19.58,0,0,1,5-.76,1,1,0,0,0,.69-.23l2.48-3.18A22.6,22.6,0,0,1,204,47.53a7.49,7.49,0,0,1,5-2c.19,0,.29.07.29.22s-.09.2-.26.26a11,11,0,0,0-4.25,3.19c-.27.3-1,1.11-2,2.4S201,53.77,201,53.82s.07.14.2.16c.3,0,1.19.09,2.67.17l2.27.09a.46.46,0,0,0,.44-.3c.14-.44.35-1.08.64-1.91a36,36,0,0,1,1.7-3.89A17.31,17.31,0,0,1,212.47,43a1.76,1.76,0,0,1,1.16-.46A.61.61,0,0,1,214.33,43.25Z"/><path class="cls-94" d="M223,58.26c0,.26-.54.72-1.62,1.4a5.71,5.71,0,0,1-2.76,1.08,1,1,0,0,1-1.13-1.16c0-1.18.68-3,2-5.54A2.93,2.93,0,0,0,220,52.8c0-.21-.09-.31-.28-.31q-.91,0-2.79,1.86a14.18,14.18,0,0,0-3.31,4.94l-.24.59-2.06.91c-.07,0-.1,0-.1-.16s.59-1.58,1.77-4.28a15.91,15.91,0,0,0,1.42-4.06c0-.3-.13-.45-.38-.45a1.65,1.65,0,0,0-.58.17,1.91,1.91,0,0,1-.45.17.17.17,0,0,1-.19-.18c0-.12.43-.36,1.28-.71a6.28,6.28,0,0,1,1.66-.53c.42,0,.62.27.62.8a7.43,7.43,0,0,1-.54,2.22,1,1,0,0,0-.05.21s0,.08.05.09a.15.15,0,0,0,.08,0Q220.09,51,221.57,51q.81,0,.81.87a10.22,10.22,0,0,1-1.27,3.5,10.14,10.14,0,0,0-1.27,3.57c0,.41.15.62.46.62a3.11,3.11,0,0,0,1.46-.68,4.13,4.13,0,0,1,1.16-.67C223,58.18,223,58.21,223,58.26Z"/><path class="cls-94" d="M228.72,52.13c0-.11.16-.27.47-.46a4.46,4.46,0,0,1,2-.29c.07,0,.14-.07.21-.22.34-.72.81-1.8,1.41-3.26.09-.27.43-.56,1-.86a3.13,3.13,0,0,1,1.3-.42c.11,0,.16.07.16.2A13.21,13.21,0,0,1,234.21,49a9.31,9.31,0,0,0-1.08,2.37l0,0c.36,0,.91,0,1.64,0l1.63,0c.29,0,.44,0,.44.13s-.17.3-.51.46a2,2,0,0,1-.78.24h-2.81c-.07,0-.14.07-.2.2q-2.07,4.57-2.07,6.06c0,.69.29,1,.86,1a5.18,5.18,0,0,0,2.35-.9c1-.61,1.53-.91,1.56-.91s.08,0,.08.08c0,.32-.67.87-2,1.66a7.63,7.63,0,0,1-3.73,1.28,1.26,1.26,0,0,1-1.43-1.42,12.3,12.3,0,0,1,1.32-4.17c.88-2,1.33-2.91,1.33-2.86s-.06-.1-.16-.1H229C228.8,52.24,228.72,52.2,228.72,52.13Z"/><path class="cls-94" d="M234.47,58.88A8.22,8.22,0,0,1,235.58,55a6.68,6.68,0,0,1,2.7-3,9.92,9.92,0,0,1,4.21-1.32c.88,0,1.32.57,1.32,1.7a7.18,7.18,0,0,1-.9,3.26,8,8,0,0,1-2.1,2.7q-3.09,2.45-4.94,2.44C234.94,60.83,234.47,60.18,234.47,58.88Zm2.16-.92c0,1,.39,1.44,1.16,1.44a2.55,2.55,0,0,0,1.38-.6,5.68,5.68,0,0,0,1.75-2.38,7.2,7.2,0,0,0,.68-2.9c0-1.15-.37-1.72-1.13-1.72s-1.56.74-2.47,2.22A7.74,7.74,0,0,0,236.63,58Z"/><path class="cls-94" d="M255.46,57.59c0,.28-.6.86-1.79,1.73a5.94,5.94,0,0,1-3.13,1.39q-.93,0-.93-1.29a5.25,5.25,0,0,1,.16-1.08,5.26,5.26,0,0,0,.17-1l0-.06c-2.28,2.28-4,3.42-5,3.42q-1.05,0-1.05-1.23a7.94,7.94,0,0,1,.88-3,11.68,11.68,0,0,1,2.55-3.68,5.72,5.72,0,0,1,4-1.75q1,0,1.29.57c0,.07.07.11.11.11s.2-.17.77-.5a3,3,0,0,1,1.44-.49c.12,0,.19.07.19.21a.2.2,0,0,1-.14.18c-.4.2-1,1.23-1.91,3.11a12.58,12.58,0,0,0-1.44,4.62c0,.46.16.7.47.7a4.09,4.09,0,0,0,1.87-1,6.9,6.9,0,0,1,1.5-1A.07.07,0,0,1,255.46,57.59ZM252,52.21c0-.34-.23-.51-.7-.51-1.05,0-2.19.89-3.41,2.69a8.08,8.08,0,0,0-1.74,4.23c0,.45.12.67.37.67a1.34,1.34,0,0,0,.69-.33q2-1.47,4.63-6.27A1,1,0,0,0,252,52.21Zm1.16-2.64c0,.07,0,.11-.13.11a11.77,11.77,0,0,1-2.58-1.5,8.77,8.77,0,0,1-2.26-1.72c0-.16.17-.34.5-.51a1.69,1.69,0,0,1,.74-.24.51.51,0,0,1,.46.19,25.86,25.86,0,0,0,1.78,2A9.73,9.73,0,0,1,253.14,49.57Z"/><path class="cls-94" d="M266.09,58.26c0,.26-.54.72-1.63,1.4a5.68,5.68,0,0,1-2.75,1.08,1,1,0,0,1-1.13-1.16c0-1.18.68-3,2.05-5.54a2.93,2.93,0,0,0,.44-1.24c0-.21-.1-.31-.28-.31q-.93,0-2.79,1.86a14.18,14.18,0,0,0-3.31,4.94l-.24.59-2.06.91c-.07,0-.1,0-.1-.16s.59-1.58,1.76-4.28a15.69,15.69,0,0,0,1.43-4.06q0-.45-.39-.45a1.71,1.71,0,0,0-.58.17,1.76,1.76,0,0,1-.44.17c-.13,0-.19-.06-.19-.18s.43-.36,1.28-.71a6.17,6.17,0,0,1,1.66-.53c.41,0,.62.27.62.8a7.43,7.43,0,0,1-.54,2.22,1,1,0,0,0,0,.21s0,.08,0,.09l.08,0Q263.15,51,264.62,51c.55,0,.82.29.82.87a10.22,10.22,0,0,1-1.27,3.5,10.14,10.14,0,0,0-1.27,3.57c0,.41.15.62.46.62a3,3,0,0,0,1.45-.68,4.26,4.26,0,0,1,1.17-.67C266.05,58.18,266.09,58.21,266.09,58.26Z"/><path class="cls-94" d="M276.29,54.58a8.59,8.59,0,0,1-1.6-.23,8,8,0,0,0-1.6-.24,1.11,1.11,0,0,0-.59.16,1,1,0,0,1-.36.15c-.13,0-.19,0-.19-.13s.24-.44.71-.77a2.53,2.53,0,0,1,2.1-.52,13.57,13.57,0,0,0,2.58.4,1.77,1.77,0,0,0,1-.25,3.15,3.15,0,0,1,.42-.24c.12,0,.18.06.18.17a.35.35,0,0,1-.08.21A2.81,2.81,0,0,1,276.29,54.58Z"/><path class="cls-94" d="M313.94,42.22c0,.25-.38.6-1.13,1a64.15,64.15,0,0,0-2.88,7.94,31.12,31.12,0,0,0-1.58,8.14c0,1.43.35,2.15,1.06,2.15a1.48,1.48,0,0,0,.78-.3,1.76,1.76,0,0,1,.56-.3.14.14,0,0,1,.16.16.41.41,0,0,1-.08.24,2.93,2.93,0,0,1-2.5,1.28c-1.52,0-2.27-1-2.27-3q0-3.8,2.78-11.34a.68.68,0,0,0,.05-.25c0-.12-.06-.18-.2-.18a.62.62,0,0,0-.21.14c-2.47,2.23-4.3,4-5.47,5.26A16.28,16.28,0,0,0,300.34,57a3.58,3.58,0,0,0-.25.54A4.38,4.38,0,0,1,300,58a10.54,10.54,0,0,1-.53,1.89,3.84,3.84,0,0,1-.81,1.18,1.81,1.81,0,0,1-1.19.69c-.23,0-.34-.15-.34-.45a8,8,0,0,1,.72-2.37,4.11,4.11,0,0,0,.19-1.43,25.55,25.55,0,0,0-.52-4.15c-.27-1.45-.51-2.95-.72-4.49,0-.23-.09-.35-.16-.35s-.22.15-.35.45l-1,2.3a37.35,37.35,0,0,1-5.5,9q-3.39,3.86-6.14,3.85-1.86,0-1.86-1.44c0-.68.18-1,.53-1,.17,0,.45.25.85.73a1.73,1.73,0,0,0,1.37.72q2.19,0,5-4.14a41.32,41.32,0,0,0,3.33-6.06q1.13-2.37,3.3-7.15a.83.83,0,0,0,.08-.27c0-.13-.16-.19-.48-.19a13.88,13.88,0,0,0-5.56,1.12c-2.22,1-3.32,2.32-3.32,4.06a6.38,6.38,0,0,0,1.24,2.94.16.16,0,0,1-.18.18,1.28,1.28,0,0,1-.5-.2,3.34,3.34,0,0,1-2-2.81,3.6,3.6,0,0,1,.95-2.25,9.24,9.24,0,0,1,4.71-2.8,35.27,35.27,0,0,1,5.52-1l1.25-.15a4.87,4.87,0,0,0,1.2-.33,1.27,1.27,0,0,1,.52-.12c.29,0,.43.06.43.2s-.07.17-.21.26a2.46,2.46,0,0,0-.87,2.21,26.91,26.91,0,0,0,.54,4.08,32,32,0,0,1,.57,4.22c0,.29,0,.43.11.43s.18-.09.32-.27c1.16-1.41,2.69-3.07,4.57-5q1.44-1.47,4.23-4.55.29-.33.84-1.08a4.76,4.76,0,0,1,1.57-1.57,6.2,6.2,0,0,1,1.86-.8C313.81,42,313.94,42.06,313.94,42.22Z"/><path class="cls-94" d="M311.92,59.61a6.88,6.88,0,0,1,.64-2.34c.33-.74.67-1.48,1-2.23a11.74,11.74,0,0,0,1-2.75c0-.26-.15-.4-.46-.4a2.7,2.7,0,0,0-.44.07,2.47,2.47,0,0,1-.43.07c-.14,0-.21-.06-.21-.16a.3.3,0,0,1,.2-.31c.14,0,.67-.18,1.59-.4a16.19,16.19,0,0,1,1.61-.37c.33,0,.49.19.49.56a5.19,5.19,0,0,1-.65,2c-.42.88-1,2.22-1.86,4A4.39,4.39,0,0,0,314,59c0,.36.13.54.4.54a4.27,4.27,0,0,0,1.89-1,6.21,6.21,0,0,1,1.59-1,.11.11,0,0,1,.08,0c0,.25-.62.82-1.85,1.71a6.13,6.13,0,0,1-3.26,1.46C312.24,60.71,311.92,60.34,311.92,59.61Zm4.3-11.18a1.28,1.28,0,0,1,.4-.81,1.41,1.41,0,0,1,.79-.49,4.09,4.09,0,0,0,2.27-1.23.16.16,0,0,1,.08-.06c.08,0,.13.06.13.19,0,.37-.36.89-1.08,1.57a3.49,3.49,0,0,1-2.3,1.13A.26.26,0,0,1,316.22,48.43Z"/><path class="cls-94" d="M328.84,58.26c0,.26-.54.72-1.62,1.4a5.67,5.67,0,0,1-2.76,1.08,1,1,0,0,1-1.13-1.16c0-1.18.68-3,2.06-5.54a2.88,2.88,0,0,0,.43-1.24c0-.21-.09-.31-.28-.31q-.92,0-2.79,1.86a14.18,14.18,0,0,0-3.31,4.94l-.24.59-2.05.91c-.07,0-.11,0-.11-.16s.59-1.58,1.77-4.28a15.49,15.49,0,0,0,1.42-4.06c0-.3-.13-.45-.38-.45a1.65,1.65,0,0,0-.58.17,1.91,1.91,0,0,1-.45.17.16.16,0,0,1-.18-.18c0-.12.42-.36,1.27-.71a6.19,6.19,0,0,1,1.67-.53c.41,0,.61.27.61.8a7.43,7.43,0,0,1-.54,2.22,1,1,0,0,0,0,.21s0,.08,0,.09.07,0,.08,0Q325.9,51,327.38,51q.81,0,.81.87a10.22,10.22,0,0,1-1.27,3.5,10.14,10.14,0,0,0-1.27,3.57c0,.41.15.62.46.62a3.07,3.07,0,0,0,1.46-.68,4.13,4.13,0,0,1,1.16-.67C328.8,58.18,328.84,58.21,328.84,58.26Z"/><path class="cls-94" d="M340.86,44.19q0,.6-.54.6a2.15,2.15,0,0,1-.78-.26,2.23,2.23,0,0,0-.92-.26c-.72,0-1.53.66-2.42,2a49.68,49.68,0,0,0-3.87,7.51q-.07.2-.18.54l0,0c.09,0,.22-.15.4-.28q4.06-3,5.56-3c.57,0,.85.33.85,1a3.68,3.68,0,0,1-.44,1.59c-.82,1.72-1.42,3-1.78,3.92a4.51,4.51,0,0,0-.38,1.58c0,.38.14.57.41.57a4.67,4.67,0,0,0,1.94-1,7.34,7.34,0,0,1,1.62-1,.08.08,0,0,1,.08.05c0,.31-.64.9-1.93,1.76a6.55,6.55,0,0,1-3.36,1.4q-1.08,0-1.08-1.17a9.35,9.35,0,0,1,1.17-3.53A9.77,9.77,0,0,0,336.41,53c0-.25-.09-.38-.27-.38-.59,0-1.56.68-2.88,2A13.86,13.86,0,0,0,329.91,60a13.68,13.68,0,0,0-2.11.92c-.09,0-.13,0-.13-.14a.74.74,0,0,1,.21-.43,26,26,0,0,0,1.62-3.86q1.58-4.17,2.52-6.21c1.32-2.85,2.49-4.63,3.53-5.35a12.27,12.27,0,0,1,4.1-1.67,1,1,0,0,1,.26,0A.84.84,0,0,1,340.86,44.19Z"/><path class="cls-94" d="M356.55,44.09c0,.4-.18.59-.54.59a1.93,1.93,0,0,1-.75-.25,2,2,0,0,0-.95-.26q-1.41,0-3.24,3.06a65.89,65.89,0,0,0-3.25,6.58,3.41,3.41,0,0,0-.26.69.06.06,0,0,0,0,.06l.05,0a15.23,15.23,0,0,1,2.7-2.39,6.25,6.25,0,0,1,3.15-1.43c.64,0,.95.35.95,1.07a4.36,4.36,0,0,1-.1.81,10.68,10.68,0,0,1-3.15,5.52q-2.56,2.52-4.92,2.52a6.12,6.12,0,0,1-.73-.05c-.33,0-.58,0-.74,0a3.76,3.76,0,0,0-.61.08,4,4,0,0,1-.62.08c-.1,0-.15,0-.14-.13l.11-.22c.3-.59.79-1.88,1.49-3.86q1.41-4,2.48-6.3,1.9-4.11,3.72-5.37A10.57,10.57,0,0,1,355,43.23l.58-.12A.86.86,0,0,1,356.55,44.09Zm-4.32,8.45c0-.29-.11-.44-.32-.44a2,2,0,0,0-1,.49,16.13,16.13,0,0,0-2.9,2.76,15.44,15.44,0,0,0-2,3.45,2.2,2.2,0,0,0-.21.65c0,.32.27.49.8.49,1.05,0,2.2-.75,3.46-2.25A8.06,8.06,0,0,0,352.23,52.54Z"/><path class="cls-94" d="M365.78,57.59c0,.28-.6.86-1.79,1.73a5.94,5.94,0,0,1-3.13,1.39q-.93,0-.93-1.29a5.25,5.25,0,0,1,.16-1.08,5.26,5.26,0,0,0,.17-1l0-.06c-2.28,2.28-4,3.42-5.05,3.42q-1.05,0-1.05-1.23a7.94,7.94,0,0,1,.88-3,11.68,11.68,0,0,1,2.55-3.68,5.72,5.72,0,0,1,4-1.75q1,0,1.29.57c0,.07.07.11.11.11s.2-.17.77-.5a3,3,0,0,1,1.44-.49q.18,0,.18.21a.19.19,0,0,1-.13.18c-.4.2-1,1.23-1.91,3.11a12.58,12.58,0,0,0-1.44,4.62c0,.46.16.7.47.7a4.14,4.14,0,0,0,1.87-1,6.9,6.9,0,0,1,1.5-1A.07.07,0,0,1,365.78,57.59Zm-7.69,6q0,.2-.66.6a2.4,2.4,0,0,1-.9.4c-.17,0-.37-.17-.6-.5a1.54,1.54,0,0,1-.34-.77c0-.16.21-.38.63-.64a2.21,2.21,0,0,1,.92-.38c.17,0,.37.16.6.5A1.54,1.54,0,0,1,358.09,63.55Zm4.21-11.34c0-.34-.23-.51-.7-.51-1.05,0-2.19.89-3.41,2.69a8.08,8.08,0,0,0-1.74,4.23c0,.45.12.67.37.67a1.37,1.37,0,0,0,.69-.33q2-1.47,4.63-6.27A1,1,0,0,0,362.3,52.21Z"/><path class="cls-94" d="M374.31,56.38c0,.5-.88,1.35-2.65,2.57a9.14,9.14,0,0,1-4.85,2c-1.28,0-1.91-.61-1.91-1.82a7.74,7.74,0,0,1,1.46-4A9.44,9.44,0,0,1,369.31,52a6.91,6.91,0,0,1,3.19-1.22.87.87,0,0,1,1,1c0,.5-.2.74-.59.74a1,1,0,0,1-.7-.34,1.07,1.07,0,0,0-.77-.34c-.82,0-1.74.89-2.74,2.67a9.11,9.11,0,0,0-1.41,4.17c0,.66.3,1,.91,1a5.78,5.78,0,0,0,2.66-1,16.65,16.65,0,0,0,2.39-1.71c.5-.44.82-.66,1-.66S374.31,56.3,374.31,56.38Z"/><path class="cls-94" d="M385.11,44.19q0,.6-.54.6a2.18,2.18,0,0,1-.79-.26,2.19,2.19,0,0,0-.91-.26c-.72,0-1.53.66-2.43,2a50.8,50.8,0,0,0-3.86,7.51,4.53,4.53,0,0,0-.19.54l0,0a4.07,4.07,0,0,0,.39-.28q4.06-3,5.57-3c.56,0,.84.33.84,1a3.66,3.66,0,0,1-.43,1.59c-.83,1.72-1.42,3-1.78,3.92a4.34,4.34,0,0,0-.39,1.58c0,.38.14.57.41.57a4.62,4.62,0,0,0,1.94-1,7.34,7.34,0,0,1,1.62-1c.05,0,.07,0,.08.05,0,.31-.64.9-1.92,1.76a6.55,6.55,0,0,1-3.36,1.4c-.73,0-1.09-.39-1.09-1.17a9.42,9.42,0,0,1,1.18-3.53A9.91,9.91,0,0,0,380.65,53c0-.25-.09-.38-.26-.38-.6,0-1.56.68-2.89,2A13.86,13.86,0,0,0,374.15,60a14.4,14.4,0,0,0-2.11.92c-.09,0-.13,0-.13-.14a.74.74,0,0,1,.21-.43,26,26,0,0,0,1.62-3.86q1.59-4.17,2.52-6.21,2-4.27,3.53-5.35a12.45,12.45,0,0,1,4.1-1.67,1,1,0,0,1,.27,0A.85.85,0,0,1,385.11,44.19Z"/></svg>